custom-analysis
version=1
nRows=8
nColumns=42
inDegrees=no

This file contains tibia displacement and acting force.

Units are S.I. units (seconds, meters, Newtons, ...)
Angles are in degrees.

endheader
time	APT	SIT	knee_angle	aACL_R_force	pACL_R_force	aPCL_R_force	pPCL_R_force	aMCL_R_force	mMCL_R_force	pMCL_R_force	aLCL_R_force	mLCL_R_force	pLCL_R_force	aACL_R_length	pACL_R_length	aPCL_R_length	pPCL_R_length	aMCL_R_length	mMCL_R_length	pMCL_R_length	aLCL_R_length	mLCL_R_length	pLCL_R_length	aACL_R_strain	pACL_R_strain	aPCL_R_strain	pPCL_R_strain	aMCL_R_strain	mMCL_R_strain	pMCL_R_strain	aLCL_R_strain	mLCL_R_strain	pLCL_R_strain	femur_lat_meniscii_force_r	femur_lat_meniscii_torque_r	femur_med_meniscii_force_r	femur_med_meniscii_torque_r	femur_lat_tibia_force_r	femur_lat_tibia_torque_r	femur_med_tibia_force_r	femur_med_tibia_torque_r
      0.00000000	      0.00000000	      0.00000000	     89.99998384	      0.28236793	      5.36419956	   1302.60579461	    811.35279875	     36.06478367	      2.10632205	      0.00000000	      0.00000000	      0.00000000	      0.00000000	      0.03169881	      0.02626841	      0.03908174	      0.03581353	      0.06238372	      0.06085633	      0.05779529	      0.05007677	      0.04462342	      0.04000359	      0.00613588	      0.02376242	      0.25683742	      0.19030062	      0.07508098	      0.01777493	     -0.04829258	     -0.10540772	     -0.20766100	     -0.23573691	     84.61636588	     33.31515453	      0.00000000	      0.00000000	      0.00000000	      0.00000000	     53.58646196	      1.28451473
      0.00100000	      0.00005082	      0.00012518	     89.99998384	    -44.96214678	    -57.50845836	   1190.68107227	    563.25268907	   -116.28098200	   -158.53141277	      0.00000000	      0.00000000	      0.00000000	      0.00000000	      0.03163243	      0.02618214	      0.03894557	      0.03567840	      0.06226544	      0.06073105	      0.05766636	      0.04994679	      0.04449116	      0.03986746	      0.00402868	      0.02039998	      0.25245836	      0.18580939	      0.07304255	      0.01567980	     -0.05041563	     -0.10772979	     -0.21000945	     -0.23833777	    148.75117486	     58.22143935	      0.00000000	      0.00000000	      0.00000000	      0.00000000	    104.31742107	      2.46399373
      0.00216463	      0.00020251	      0.00043862	     89.99998384	      0.00000000	    -88.28036626	   1097.16278231	    427.01514698	   -165.79433711	   -210.32637189	      0.00000000	      0.00000000	      0.00000000	      0.00000000	      0.03146742	      0.02595836	      0.03859791	      0.03533194	      0.06197437	      0.06041975	      0.05734445	      0.04962283	      0.04416069	      0.03952473	     -0.00120879	      0.01167884	      0.24127807	      0.17429445	      0.06802641	      0.01047352	     -0.05571645	     -0.11351714	     -0.21587734	     -0.24488547	    202.34784131	     79.17598623	      0.00000000	      0.00000000	      0.00000000	      0.00000000	    262.08297077	      6.07488528
      0.00280092	      0.00030865	      0.00062593	     89.99998384	      0.00000000	    -96.91520737	   1062.53286222	    401.71348116	   -157.81489802	   -201.16642244	      0.00000000	      0.00000000	      0.00000000	      0.00000000	      0.03136150	      0.02581028	      0.03838800	      0.03512223	      0.06180516	      0.06023709	      0.05715530	      0.04943240	      0.04396620	      0.03932173	     -0.00457059	      0.00590741	      0.23452753	      0.16732477	      0.06511042	      0.00741870	     -0.05883116	     -0.11691908	     -0.21933081	     -0.24876391	    221.86433017	     86.93870357	      0.00000000	      0.00000000	      0.00000000	      0.00000000	    379.29023996	      8.62566141
      0.00343722	      0.00042548	      0.00080353	     89.99998384	      0.00000000	      0.00000000	   1033.16880874	    386.84767074	   -141.45109633	   -183.70788694	      0.00000000	      0.00000000	      0.00000000	      0.00000000	      0.03125262	      0.02565388	      0.03818699	      0.03492092	      0.06164984	      0.06006763	      0.05697960	      0.04925534	      0.04378515	      0.03913142	     -0.00802665	     -0.00018796	      0.22806314	      0.16063385	      0.06243367	      0.00458469	     -0.06172448	     -0.12008211	     -0.22254554	     -0.25239976	    235.72422185	     92.21904028	      0.00000000	      0.00000000	      0.00000000	      0.00000000	    494.71346423	     11.05775652
      0.00407351	      0.00055095	      0.00096620	     89.99998384	      0.00000000	      0.00000000	   1012.15469950	    389.45259081	   -116.76501131	   -157.00705696	      0.00000000	      0.00000000	      0.00000000	      0.00000000	      0.03113946	      0.02548793	      0.03800185	      0.03473514	      0.06151428	      0.05991775	      0.05682425	      0.04909826	      0.04362444	      0.03896111	     -0.01161815	     -0.00665532	      0.22210912	      0.15445923	      0.06009756	      0.00207804	     -0.06428252	     -0.12288824	     -0.22539911	     -0.25565344	    238.28238349	     93.21954228	      0.00000000	      0.00000000	      1.75906347	      0.06844967	    585.91230190	     12.85434171
      0.00476633	      0.00069358	      0.00111942	     89.99998384	      0.00000000	      0.00000000	    995.40427004	    399.69256141	    -87.40976654	      0.00000000	      0.00000000	      0.00000000	      0.00000000	      0.00000000	      0.03101292	      0.02529894	      0.03782729	      0.03455966	      0.06139623	      0.05978451	      0.05668646	      0.04895806	      0.04348101	      0.03880736	     -0.01563472	     -0.01402108	      0.21649552	      0.14862712	      0.05806306	     -0.00015033	     -0.06655154	     -0.12539283	     -0.22794591	     -0.25859082	    245.27833663	     95.68948482	      0.00000000	      0.00000000	     23.05061753	      0.90446768	    647.99487452	     13.96417115
      0.00545916	      0.00084215	      0.00125267	     89.99998384	      0.00000000	      0.00000000	    980.56563764	    407.74969178	    -62.99857594	      0.00000000	      0.00000000	      0.00000000	      0.00000000	      0.00000000	      0.03088524	      0.02510435	      0.03767581	      0.03440704	      0.06130345	      0.05967675	      0.05657520	      0.04884427	      0.04336460	      0.03868068	     -0.01968745	     -0.02160465	      0.21162385	      0.14355439	      0.05646417	     -0.00195256	     -0.06838364	     -0.12742556	     -0.23001279	     -0.26101097	    248.18798788	     96.67981477	      0.00000000	      0.00000000	     65.33523724	      2.56267858	    682.23478718	     14.56151814
